<?xml version="1.0" encoding="UTF-8" standalone="no"?>
<!-- Created with Inkscape (http://www.inkscape.org/) -->

<svg
   xmlns:dc="http://purl.org/dc/elements/1.1/"
   xmlns:cc="http://creativecommons.org/ns#"
   xmlns:rdf="http://www.w3.org/1999/02/22-rdf-syntax-ns#"
   xmlns:svg="http://www.w3.org/2000/svg"
   xmlns="http://www.w3.org/2000/svg"
   version="1.1"
   width="400"
   height="400"
   id="svg3055">
  <metadata
     id="metadata3061">
    <rdf:RDF>
      <cc:Work
         rdf:about="">
        <dc:format>image/svg+xml</dc:format>
        <dc:type
           rdf:resource="http://purl.org/dc/dcmitype/StillImage" />
        <dc:title></dc:title>
      </cc:Work>
    </rdf:RDF>
  </metadata>
  <defs
     id="defs3059">
    <mask
       id="mask3182">
      <path
         d="m 231.82406,206.20958 a 117.20569,117.20569 0 1 1 -234.4113784,0 117.20569,117.20569 0 1 1 234.4113784,0 z"
         transform="translate(185.25226,54.333765)"
         id="path3184"
         style="fill:#0030cc;fill-opacity:0.85098249;display:inline" />
    </mask>
  </defs>
  <g
     id="layer2"
     style="display:inline" />
  <g
     id="layer1"
     style="display:inline" />
  <g
     id="layer4"
     style="display:inline" />
  <g
     id="layer3">
    <g
       id="g4115">
      <path
         d="m 372.05692,192.23804 a 188.61578,188.61578 0 1 1 -377.2315721,0 188.61578,188.61578 0 1 1 377.2315721,0 z"
         transform="matrix(0.99621101,0.08696905,-0.08696905,0.99621101,33.638283,-6.8722395)"
         id="path3065"
         style="fill:#42b900;fill-opacity:0.77647059;display:inline" />
      <g
         id="g4111">
        <path
           d="m 231.82406,206.20958 a 117.20569,117.20569 0 1 1 -234.4113784,0 117.20569,117.20569 0 1 1 234.4113784,0 z"
           transform="matrix(0.99621101,0.08696905,-0.08696905,0.99621101,33.344492,-4.0404403)"
           id="path3071"
           style="fill:#0030cc;fill-opacity:1;display:inline" />
        <path
           d="m 188.11939,308.51377 c -48.05743,-6.74802 -87.77368,-40.8176 -103.120826,-88.45958 -4.77293,-14.81656 -7.258607,-33.2707 -6.476671,-48.08402 1.27253,-24.10764 9.009594,-47.84505 21.758367,-66.75492 5.74433,-8.520383 6.06482,-8.815469 10.82059,-9.963228 6.84057,-1.650907 18.5934,-2.85027 25.87672,-2.640695 20.56946,0.591888 40.2209,6.818716 57.54801,18.234893 5.00765,3.29934 13.57938,10.0236 13.65594,10.71266 0.023,0.21117 -0.77606,1.60153 -1.77671,3.08974 -4.86204,7.23111 -8.83112,17.85106 -10.31967,27.612 -0.70192,4.60276 -0.68645,6.80872 0.11188,15.9061 0.83752,9.54519 1.11871,11.11631 2.91946,16.31691 2.43254,7.02521 7.96786,16.86471 12.42375,22.08427 8.51138,9.97008 20.41673,17.78105 31.54771,20.69814 3.83073,1.00392 3.7323,0.21116 1.33537,10.7535 -6.20933,27.31038 -21.45619,50.80892 -43.68667,67.33011 -2.77161,2.0598 -5.65789,3.76691 -6.41398,3.7936 -0.75608,0.0265 -3.54757,-0.2566 -6.20327,-0.62958 z"
           id="path3206"
           style="fill:#ce0049;fill-opacity:1;display:inline" />
      </g>
      <path
         d="m 506.59766,193.79042 a 66.494179,66.494179 0 1 1 -132.98835,0 66.494179,66.494179 0 1 1 132.98835,0 z"
         transform="matrix(0.99621101,0.08696905,-0.08696905,0.99621101,-162.71181,-67.35895)"
         id="path3073"
         style="fill:#f1e300;fill-opacity:1" />
    </g>
  </g>
</svg>
