<?xml version="1.0" encoding="UTF-8" standalone="no"?>
<!-- Created with Inkscape (http://www.inkscape.org/) -->

<svg
   xmlns:dc="http://purl.org/dc/elements/1.1/"
   xmlns:cc="http://creativecommons.org/ns#"
   xmlns:rdf="http://www.w3.org/1999/02/22-rdf-syntax-ns#"
   xmlns:svg="http://www.w3.org/2000/svg"
   xmlns="http://www.w3.org/2000/svg"
   version="1.1"
   width="400"
   height="400"
   id="svg3055">
  <metadata
     id="metadata3061">
    <rdf:RDF>
      <cc:Work
         rdf:about="">
        <dc:format>image/svg+xml</dc:format>
        <dc:type
           rdf:resource="http://purl.org/dc/dcmitype/StillImage" />
        <dc:title></dc:title>
      </cc:Work>
    </rdf:RDF>
  </metadata>
  <defs
     id="defs3059">
    <mask
       id="mask3182">
      <path
         d="m 231.82406,206.20958 a 117.20569,117.20569 0 1 1 -234.4113784,0 117.20569,117.20569 0 1 1 234.4113784,0 z"
         transform="translate(185.25226,54.333765)"
         id="path3184"
         style="fill:#0030cc;fill-opacity:0.85098249;display:inline" />
    </mask>
  </defs>
  <g
     id="layer2"
     style="display:inline" />
  <g
     id="layer1"
     style="display:inline" />
  <g
     id="layer4"
     style="display:inline" />
  <g
     id="g3123">
    <path
       d="m 24.509275,173.73876 c 0,-2.09915 -0.08084,-4.19832 -0.242214,-6.29756 -0.08084,-2.09912 -0.201946,-4.19833 -0.363321,-6.29757 l 8.598599,0 0,8.5986 0.242214,0 c 1.937682,-3.31022 4.602036,-5.81308 7.993063,-7.50864 3.471715,-1.69543 6.90307,-2.54318 10.294097,-2.54324 1.533972,6e-5 3.148753,0.16137 4.844281,0.48442 1.776186,0.32303 3.471684,0.92856 5.086495,1.81661 1.61472,0.80745 3.108363,1.97813 4.48096,3.5121 1.453224,1.53407 2.664294,3.51217 3.633211,5.93425 1.61472,-3.63315 4.157937,-6.49936 7.629742,-8.5986 3.552402,-2.09912 7.225972,-3.14872 11.02074,-3.14878 7.26633,6e-5 12.635428,1.93777 16.107238,5.81313 3.47165,3.79474 5.20751,9.24456 5.2076,16.34945 l 0,35.96879 -7.99307,0 0,-33.06222 c -9e-5,-5.73236 -1.0093,-10.13257 -3.027671,-13.20066 -2.018521,-3.06801 -5.772839,-4.60201 -11.262954,-4.60207 -2.987377,6e-5 -5.490235,0.60559 -7.508635,1.8166 -2.018521,1.13039 -3.67363,2.66442 -4.965388,4.60207 -1.211131,1.93777 -2.099239,4.15806 -2.664355,6.66089 -0.565206,2.42217 -0.847809,4.96542 -0.847749,7.62974 l 0,30.15565 -7.993063,0 0,-33.06222 c -6.1e-5,-5.73236 -1.009276,-10.13257 -3.027676,-13.20066 -2.018491,-3.06801 -5.772809,-4.60201 -11.262953,-4.60207 -0.484459,6e-5 -1.614781,0.16137 -3.390997,0.48443 -1.695529,0.32299 -3.471775,1.21113 -5.328709,2.66435 -1.856995,1.45335 -3.552493,3.63327 -5.086495,6.53978 -1.453315,2.9066 -2.179957,6.94352 -2.179926,12.1107 l 0,29.06569 -7.993064,0 0,-44.08296"
       id="path3095"
       style="font-size:40px;font-style:normal;font-variant:normal;font-weight:normal;font-stretch:normal;line-height:125%;letter-spacing:0px;word-spacing:0px;fill:#f2f2f2;fill-opacity:1;stroke:none;font-family:Avenir;-inkscape-font-specification:Avenir" />
    <path
       d="m 224.12393,168.41005 -16.34945,0 0,33.42554 c -3e-5,2.09921 0.20195,3.83507 0.60553,5.2076 0.40368,1.29182 0.96883,2.30104 1.6955,3.02768 0.72661,0.72664 1.57436,1.25146 2.54325,1.57439 1.04957,0.24221 2.1799,0.36332 3.391,0.36332 1.3725,0 2.78543,-0.20194 4.23874,-0.60553 1.45326,-0.40368 2.78543,-0.92847 3.99653,-1.5744 l 0.36333,7.38753 c -2.98735,1.37254 -6.58017,2.05882 -10.77853,2.05882 -1.53406,0 -3.14881,-0.20194 -4.84428,-0.60553 -1.61478,-0.40368 -3.10842,-1.17071 -4.48096,-2.30104 -1.37257,-1.13032 -2.50289,-2.66435 -3.391,-4.60206 -0.88814,-1.93772 -1.33217,-4.48096 -1.33217,-7.62975 l 0,-35.72657 -11.9896,0 0,-7.26642 11.9896,0 0,-15.98613 7.99306,0 0,15.98613 16.34945,0 0,7.26642"
       id="path3097"
       style="font-size:40px;font-style:normal;font-variant:normal;font-weight:normal;font-stretch:normal;line-height:125%;letter-spacing:0px;word-spacing:0px;fill:#f2f2f2;fill-opacity:1;stroke:none;font-family:Avenir;-inkscape-font-specification:Avenir" />
    <path
       d="m 244.83701,217.82172 -7.99306,0 0,-91.55691 7.99306,0 0,91.55691"
       id="path3099"
       style="font-size:40px;font-style:normal;font-variant:normal;font-weight:normal;font-stretch:normal;line-height:125%;letter-spacing:0px;word-spacing:0px;fill:#f2f2f2;fill-opacity:1;stroke:none;font-family:Avenir;-inkscape-font-specification:Avenir" />
    <path
       d="m 308.20436,185.12282 c -3e-5,-5.40939 -1.61481,-9.76925 -4.84429,-13.07956 -3.22956,-3.39093 -7.75087,-5.08643 -13.56395,-5.08649 -2.58367,6e-5 -5.08653,0.52485 -7.50867,1.57439 -2.42214,0.96892 -4.56171,2.30109 -6.41867,3.99653 -1.77625,1.69556 -3.22953,3.63324 -4.35985,5.81314 -1.04961,2.17996 -1.57439,4.44063 -1.57439,6.78199 l 38.26982,0 m -38.51204,6.53978 c 0.24222,2.82585 0.9285,5.49021 2.05882,7.99306 1.13032,2.50289 2.624,4.68282 4.48096,6.53978 1.85697,1.77625 3.99653,3.18918 6.41867,4.23875 2.42214,1.0496 5.04611,1.57439 7.87196,1.57439 4.27911,0 7.95267,-0.96886 11.02074,-2.90657 3.14875,-2.01843 5.5305,-4.31946 7.14531,-6.9031 l 6.17646,5.0865 c -3.39102,4.27913 -7.14534,7.34717 -11.26292,9.20413 -4.03695,1.85697 -8.3968,2.78546 -13.07959,2.78546 -4.19839,0 -8.11417,-0.72664 -11.74738,-2.17992 -3.55246,-1.53401 -6.62053,-3.63321 -9.20413,-6.29757 -2.58361,-2.66435 -4.64243,-5.81311 -6.17646,-9.44635 -1.45329,-3.63318 -2.17993,-7.58935 -2.17993,-11.86849 0,-4.27907 0.72664,-8.23524 2.17993,-11.86848 1.45328,-3.63315 3.47174,-6.78194 6.05535,-9.44635 2.5836,-2.6643 5.61128,-4.72311 9.08302,-6.17646 3.47172,-1.53397 7.22604,-2.30097 11.26299,-2.30103 4.27907,6e-5 8.11411,0.76706 11.50514,2.30103 3.39096,1.53409 6.21678,3.59291 8.47749,6.17646 2.34136,2.50292 4.11761,5.49023 5.32871,8.96192 1.21101,3.39103 1.81654,7.02424 1.8166,10.89963 l 0,3.63321 -47.23174,0"
       id="path3101"
       style="font-size:40px;font-style:normal;font-variant:normal;font-weight:normal;font-stretch:normal;line-height:125%;letter-spacing:0px;word-spacing:0px;fill:#f2f2f2;fill-opacity:1;stroke:none;font-family:Avenir;-inkscape-font-specification:Avenir" />
    <path
       d="m 352.60713,208.01205 17.3183,-46.86842 9.68856,0 -28.33904,71.45315 c -1.69553,4.35982 -3.87546,7.83156 -6.53978,10.4152 -2.58364,2.58361 -6.33796,3.87539 -11.26295,3.87542 -1.21107,-3e-5 -2.46253,-0.0403 -3.75432,-0.1211 -1.21107,-0.0808 -2.42214,-0.323 -3.63321,-0.72665 l 0.84775,-7.75084 c 1.6955,0.8881 3.71393,1.33214 6.05535,1.33217 2.82582,-3e-5 5.0461,-0.88814 6.66088,-2.66435 1.61475,-1.77625 3.02765,-4.27914 4.23875,-7.50864 l 4.11764,-10.89963 -23.25255,-57.40473 10.05188,0 17.80274,46.86842"
       id="path3103"
       style="font-size:40px;font-style:normal;font-variant:normal;font-weight:normal;font-stretch:normal;line-height:125%;letter-spacing:0px;word-spacing:0px;fill:#f2f2f2;fill-opacity:1;stroke:none;font-family:Avenir;-inkscape-font-specification:Avenir" />
    <g
       transform="matrix(0.18285787,0,0,0.18285787,116.18495,149.97141)"
       id="layer3">
      <g
         id="g4115">
        <path
           d="m 372.05692,192.23804 a 188.61579,188.61579 0 1 1 -377.2315721,0 188.61579,188.61579 0 1 1 377.2315721,0 z"
           transform="matrix(0.99621101,0.08696905,-0.08696905,0.99621101,33.638283,-6.8722395)"
           id="path3065"
           style="fill:#42b900;fill-opacity:0.77647059;display:inline" />
        <g
           id="g4111">
          <path
             d="m 231.82406,206.20958 a 117.20569,117.20569 0 1 1 -234.4113784,0 117.20569,117.20569 0 1 1 234.4113784,0 z"
             transform="matrix(0.99621101,0.08696905,-0.08696905,0.99621101,33.344492,-4.0404403)"
             id="path3071"
             style="fill:#0030cc;fill-opacity:1;display:inline" />
          <path
             d="m 188.11939,308.51377 c -48.05743,-6.74802 -87.77368,-40.8176 -103.120826,-88.45958 -4.77293,-14.81656 -7.258607,-33.2707 -6.476671,-48.08402 1.27253,-24.10764 9.009594,-47.84505 21.758367,-66.75492 5.74433,-8.520383 6.06482,-8.815469 10.82059,-9.963228 6.84057,-1.650907 18.5934,-2.85027 25.87672,-2.640695 20.56946,0.591888 40.2209,6.818716 57.54801,18.234893 5.00765,3.29934 13.57938,10.0236 13.65594,10.71266 0.023,0.21117 -0.77606,1.60153 -1.77671,3.08974 -4.86204,7.23111 -8.83112,17.85106 -10.31967,27.612 -0.70192,4.60276 -0.68645,6.80872 0.11188,15.9061 0.83752,9.54519 1.11871,11.11631 2.91946,16.31691 2.43254,7.02521 7.96786,16.86471 12.42375,22.08427 8.51138,9.97008 20.41673,17.78105 31.54771,20.69814 3.83073,1.00392 3.7323,0.21116 1.33537,10.7535 -6.20933,27.31038 -21.45619,50.80892 -43.68667,67.33011 -2.77161,2.0598 -5.65789,3.76691 -6.41398,3.7936 -0.75608,0.0265 -3.54757,-0.2566 -6.20327,-0.62958 z"
             id="path3206"
             style="fill:#ce0049;fill-opacity:1;display:inline" />
        </g>
        <path
           d="m 506.59766,193.79042 a 66.494179,66.494179 0 1 1 -132.98835,0 66.494179,66.494179 0 1 1 132.98835,0 z"
           transform="matrix(0.99621101,0.08696905,-0.08696905,0.99621101,-162.71181,-67.35895)"
           id="path3073"
           style="fill:#f1e300;fill-opacity:1" />
      </g>
    </g>
  </g>
</svg>
